<svg xmlns="http://www.w3.org/2000/svg" viewBox="0 0 32 32" width="1024" height="1024" shape-rendering="crispEdges">
  <rect width="32" height="32" fill="#17131F"/>
  <rect x="3" y="3" width="26" height="26" fill="#21182B"/>
  <rect x="4" y="4" width="24" height="5" fill="#2B1C36"/>
  <rect x="4" y="24" width="24" height="4" fill="#130F18"/>

  <!-- tiny music notes -->
  <rect x="5" y="6" width="1" height="4" fill="#F6C56B"/>
  <rect x="6" y="6" width="2" height="1" fill="#F6C56B"/>
  <rect x="4" y="9" width="2" height="2" fill="#F6C56B"/>
  <rect x="26" y="5" width="1" height="4" fill="#E98C67"/>
  <rect x="24" y="5" width="3" height="1" fill="#E98C67"/>
  <rect x="24" y="8" width="2" height="2" fill="#E98C67"/>

  <!-- heart -->
  <rect x="15" y="5" width="2" height="1" fill="#FF708A"/>
  <rect x="14" y="6" width="4" height="2" fill="#FF708A"/>
  <rect x="15" y="8" width="2" height="1" fill="#FF708A"/>

  <!-- SEBASTIÁN cat ears -->
  <rect x="6" y="9" width="3" height="1" fill="#241A20"/>
  <rect x="5" y="10" width="4" height="4" fill="#34242A"/>
  <rect x="6" y="10" width="2" height="3" fill="#E98C7B"/>
  <rect x="13" y="9" width="3" height="1" fill="#241A20"/>
  <rect x="13" y="10" width="4" height="4" fill="#34242A"/>
  <rect x="14" y="10" width="2" height="3" fill="#E98C7B"/>

  <!-- SEBASTIÁN head / hair -->
  <rect x="6" y="12" width="10" height="9" fill="#C8794E"/>
  <rect x="7" y="11" width="8" height="4" fill="#2A1D21"/>
  <rect x="6" y="13" width="3" height="2" fill="#2A1D21"/>
  <rect x="9" y="12" width="2" height="2" fill="#3A272B"/>
  <rect x="12" y="12" width="3" height="2" fill="#3A272B"/>
  <rect x="7" y="15" width="8" height="5" fill="#D98A59"/>
  <rect x="8" y="16" width="6" height="3" fill="#E39A67"/>

  <!-- SEBASTIÁN glasses -->
  <rect x="7" y="15" width="4" height="1" fill="#0F1117"/>
  <rect x="7" y="16" width="1" height="3" fill="#0F1117"/>
  <rect x="10" y="16" width="1" height="3" fill="#0F1117"/>
  <rect x="8" y="18" width="3" height="1" fill="#0F1117"/>
  <rect x="12" y="15" width="4" height="1" fill="#0F1117"/>
  <rect x="12" y="16" width="1" height="3" fill="#0F1117"/>
  <rect x="15" y="16" width="1" height="3" fill="#0F1117"/>
  <rect x="12" y="18" width="4" height="1" fill="#0F1117"/>
  <rect x="11" y="16" width="1" height="1" fill="#0F1117"/>
  <rect x="8" y="16" width="1" height="1" fill="#3A2520"/>
  <rect x="13" y="16" width="1" height="1" fill="#3A2520"/>

  <!-- SEBASTIÁN moustache / septum -->
  <rect x="10" y="19" width="3" height="1" fill="#5A332B"/>
  <rect x="9" y="20" width="5" height="1" fill="#3A2425"/>
  <rect x="11" y="18" width="1" height="1" fill="#D9DEE7"/>

  <!-- MAXITO cat ears -->
  <rect x="18" y="9" width="3" height="1" fill="#8A3C26"/>
  <rect x="17" y="10" width="4" height="4" fill="#B95434"/>
  <rect x="18" y="10" width="2" height="3" fill="#F1A08D"/>
  <rect x="25" y="9" width="2" height="1" fill="#8A3C26"/>
  <rect x="24" y="10" width="4" height="4" fill="#B95434"/>
  <rect x="25" y="10" width="2" height="3" fill="#F1A08D"/>

  <!-- MAXITO head / ginger hair -->
  <rect x="18" y="12" width="9" height="9" fill="#E7A078"/>
  <rect x="18" y="11" width="9" height="4" fill="#B95331"/>
  <rect x="19" y="11" width="2" height="1" fill="#D46A3E"/>
  <rect x="22" y="11" width="3" height="1" fill="#C75B35"/>
  <rect x="18" y="13" width="2" height="2" fill="#A6462D"/>
  <rect x="24" y="13" width="3" height="2" fill="#A6462D"/>
  <rect x="19" y="15" width="7" height="5" fill="#F0AC84"/>

  <!-- MAXITO eyes / tattoos / piercings -->
  <rect x="20" y="16" width="2" height="1" fill="#E8F5FF"/>
  <rect x="21" y="16" width="1" height="1" fill="#4C91B8"/>
  <rect x="24" y="16" width="2" height="1" fill="#E8F5FF"/>
  <rect x="24" y="16" width="1" height="1" fill="#4C91B8"/>
  <rect x="19" y="17" width="2" height="1" fill="#59606A"/>
  <rect x="19" y="18" width="1" height="1" fill="#59606A"/>
  <rect x="23" y="18" width="1" height="1" fill="#CDD3DC"/>
  <rect x="25" y="19" width="1" height="1" fill="#CDD3DC"/>

  <!-- shoulders / outfits -->
  <rect x="6" y="21" width="10" height="4" fill="#B7CBD8"/>
  <rect x="7" y="21" width="1" height="4" fill="#EAF3F7"/>
  <rect x="10" y="21" width="1" height="4" fill="#EAF3F7"/>
  <rect x="13" y="21" width="1" height="4" fill="#EAF3F7"/>
  <rect x="18" y="21" width="9" height="4" fill="#111116"/>
  <rect x="19" y="21" width="7" height="1" fill="#29262C"/>

  <!-- wine glasses -->
  <rect x="14" y="23" width="1" height="2" fill="#E7E0E8"/>
  <rect x="13" y="23" width="3" height="1" fill="#E7E0E8"/>
  <rect x="14" y="23" width="1" height="1" fill="#8E243A"/>
  <rect x="14" y="25" width="1" height="2" fill="#E7E0E8"/>
  <rect x="13" y="27" width="3" height="1" fill="#E7E0E8"/>

  <rect x="17" y="23" width="1" height="2" fill="#E7E0E8"/>
  <rect x="16" y="23" width="3" height="1" fill="#E7E0E8"/>
  <rect x="17" y="23" width="1" height="1" fill="#8E243A"/>
  <rect x="17" y="25" width="1" height="2" fill="#E7E0E8"/>
  <rect x="16" y="27" width="3" height="1" fill="#E7E0E8"/>

  <!-- grounding pixels -->
  <rect x="8" y="28" width="16" height="1" fill="#0C0910"/>
</svg>